<svg width="1084" height="567" viewBox="0 0 1084 567" fill="none" xmlns="http://www.w3.org/2000/svg">
<path d="M332.931 562.503V524.133L495.906 524.528V431.174L369.719 430.778V391.221L495.906 391.616V296.679L332.535 296.283V256.331L537.046 256.726L536.255 563.69L332.931 562.503Z" fill="#3AAA35"/>
<path d="M736.019 562.899L664.42 449.37C662.047 449.765 658.882 449.765 654.135 449.765H609.04V562.899H567.9V255.935H649.388C670.353 255.935 688.945 259.495 705.164 267.011C721.382 274.527 734.436 285.207 743.534 299.448C752.633 313.689 757.379 331.094 757.379 351.268C757.379 370.255 753.424 387.661 745.117 403.484C736.81 419.306 724.151 431.173 706.746 439.48L783.487 562.899H736.019ZM700.813 392.803C710.702 381.331 715.449 367.882 715.449 352.85C715.449 343.752 713.471 335.05 709.515 325.951C705.559 316.853 698.835 309.733 690.132 304.195C681.43 298.657 669.958 295.492 656.509 295.492H609.04V410.208H653.344C675.1 410.208 690.923 404.275 700.813 392.803Z" fill="#FFDE00"/>
<path d="M792.189 331.489C806.43 307.359 825.022 288.372 849.152 273.736C872.886 259.495 898.994 252.375 927.08 252.375C954.77 252.375 980.877 259.495 1004.61 273.736C1028.35 287.976 1047.73 307.359 1061.97 331.489C1076.21 355.619 1083.33 381.727 1083.33 409.813C1083.33 438.294 1076.21 464.402 1062.37 488.532C1048.12 512.661 1029.14 531.649 1005.01 545.494C980.877 559.339 955.165 566.459 927.08 566.459C898.994 566.459 872.886 559.339 848.756 545.494C824.626 531.649 806.034 512.661 791.794 488.927C777.949 465.193 770.829 438.689 770.829 409.813C770.829 381.727 777.949 355.619 792.189 331.489ZM828.582 468.357C838.867 486.158 852.712 500.399 870.117 510.683C887.522 520.968 906.905 526.506 927.871 526.506C948.836 526.506 967.824 521.364 985.229 511.079C1002.63 500.794 1016.08 486.554 1026.37 468.753C1036.26 450.952 1041.4 431.173 1041.4 409.813C1041.4 388.452 1036.26 369.069 1026.37 350.872C1016.48 332.676 1002.63 318.436 984.833 308.151C967.428 297.866 948.44 292.328 927.475 292.328C906.51 292.328 887.522 297.47 870.117 308.151C852.712 318.831 838.867 333.072 828.978 351.268C819.088 369.464 813.946 389.243 813.946 410.208C813.155 431.174 818.297 450.557 828.582 468.357Z" fill="#E41C1F"/>
<path d="M304.054 265.033V561.317H263.705V373.42L151.363 533.627H150.572L40.2071 378.958V562.899H0.649902V255.539H1.04544L151.363 469.544L303.658 255.539L304.054 265.033Z" fill="#2D56A3"/>
<path d="M426.285 132.121H425.89" stroke="black" stroke-width="0.25" stroke-miterlimit="10"/>
<path d="M516.871 218.751H380.003C382.772 185.523 396.222 157.438 415.605 142.406C423.121 153.086 434.592 159.811 447.251 159.811C460.7 159.811 472.567 152.295 479.687 141.219C499.862 155.855 514.102 184.732 516.871 218.751Z" fill="#2D56A3"/>
<path d="M485.225 101.266C485.225 113.134 480.083 124.209 472.172 131.33C465.447 137.263 456.744 140.824 447.646 140.824C438.548 140.824 430.241 137.659 423.912 132.121C415.209 125.001 409.671 113.529 409.671 101.266C409.671 96.5195 410.462 91.7726 412.045 87.8169C417.187 72.7851 431.428 61.7092 447.646 61.7092C463.865 61.7092 478.105 72.7851 483.248 87.8169C484.039 91.7726 485.225 96.5195 485.225 101.266Z" fill="#2D56A3"/>
<path d="M726.92 217.96H590.052C592.821 184.732 606.271 156.647 625.654 141.615C633.17 152.295 644.641 159.02 657.3 159.02C670.749 159.02 682.616 151.504 689.737 140.428C709.911 155.064 724.151 183.941 726.92 217.96Z" fill="#FFDE00"/>
<path d="M694.879 100.08C694.879 111.947 689.736 123.023 681.825 130.143C675.1 136.077 666.397 139.637 657.299 139.637C648.201 139.637 639.894 136.472 633.565 130.934C624.862 123.814 619.324 112.342 619.324 100.08C619.324 95.3328 620.116 90.586 621.698 86.6302C626.84 71.5985 641.081 60.5225 657.299 60.5225C673.518 60.5225 687.758 71.5985 692.901 86.6302C694.087 90.9815 694.879 95.3328 694.879 100.08Z" fill="#FFDE00"/>
<path d="M563.153 135.681H562.758" stroke="white" stroke-width="0.25" stroke-miterlimit="10"/>
<path d="M639.103 222.707H470.194C473.754 184.337 490.368 151.504 513.707 133.703C522.805 145.966 537.046 153.877 552.869 153.877C569.087 153.877 583.723 145.175 593.217 132.121C617.742 149.922 635.543 183.15 639.103 222.707Z" fill="#3AAA35"/>
<path d="M599.546 86.2347C599.546 100.08 593.217 112.738 583.328 121.441C575.021 128.561 564.34 132.517 552.868 132.517C541.792 132.517 531.508 128.561 523.596 122.232C512.916 113.925 506.191 100.871 506.191 86.2347C506.191 80.6966 507.378 75.1586 508.96 70.4118C515.289 53.0066 532.694 40.3483 552.868 40.3483C573.043 40.3483 590.448 53.0066 596.777 70.4118C598.359 75.5542 599.546 80.6966 599.546 86.2347Z" fill="#3AAA35"/>
<path d="M702.791 57.7535C698.835 52.2155 693.692 47.0731 687.363 43.5129C681.034 39.9528 674.309 37.5794 667.189 36.7882L713.075 0L702.791 57.7535Z" fill="#D91016"/>
</svg>